<svg xmlns="http://www.w3.org/2000/svg" viewBox="0 0 64 64" role="img" aria-label="CamIO icon">
  <defs>
    <linearGradient id="grad" x1="0%" y1="0%" x2="100%" y2="100%">
      <stop offset="0%" stop-color="#600CEB" />
      <stop offset="100%" stop-color="#5FBDF7" />
    </linearGradient>
  </defs>
  <rect width="64" height="64" rx="16" ry="16" fill="url(#grad)" />
  <g fill="none" stroke="#ffffff" stroke-linecap="round" stroke-linejoin="round">
    <path d="M20 22h-2a6 6 0 0 0-6 6v16a6 6 0 0 0 6 6h28a6 6 0 0 0 6-6V28a6 6 0 0 0-6-6h-2l-3.2-4.8a4 4 0 0 0-3.3-1.7H26.5a4 4 0 0 0-3.3 1.7z" stroke-width="4" />
    <circle cx="32" cy="36" r="9" stroke-width="4" />
    <circle cx="32" cy="36" r="4" stroke-width="3" />
    <circle cx="44" cy="26" r="2" stroke-width="3" />
  </g>
</svg>
